<svg xmlns="http://www.w3.org/2000/svg" xmlns:xlink="http://www.w3.org/1999/xlink" viewBox="0 0 54.95 54.95"><defs><style>.cls-1{fill:url(#linear-gradient)}.cls-2{fill:#fff}</style><linearGradient id="linear-gradient" x2="54.95" y1="27.48" y2="27.48" gradientUnits="userSpaceOnUse"><stop offset="0" stop-color="#57813a"/><stop offset="1" stop-color="#d9e026"/></linearGradient></defs><g id="Camada_2" data-name="Camada 2"><g id="Camada_1-2" data-name="Camada 1"><rect width="54.95" height="54.95" class="cls-1"/><path d="M32.43,27,35.9,11A1.79,1.79,0,0,0,34.68,8.8h0a1.79,1.79,0,0,0-2,1.59L30.4,26.62c-.2,1.05.09,2,.65,2.09h0C31.61,28.81,32.23,28.06,32.43,27Z" class="cls-2"/><path d="M19.74,38.18c0,1.68-1.33,3.46-2,4.31l5.62,1.09a36.65,36.65,0,0,0,3.9-7.45,17.14,17.14,0,0,1-1.95,7.08c.68.13,1.85-2.06,1.85-2.06a6.44,6.44,0,0,1-1.09,3l5.4,1c2.65-2.14,4.75-6.76,4.75-6.76-.61,3-1.72,5.75-3,7.1l3.62.69c4.54-3.77,5.09-13.44,5.09-13.44l-22.21-4A29.67,29.67,0,0,1,13,41.6l3.44.66A12.94,12.94,0,0,0,19.74,38.18Z" class="cls-2"/><path d="M22,26.14H41.53a0,0,0,0,1,0,0v1.19a1.14,1.14,0,0,1-1.14,1.14H23.15A1.14,1.14,0,0,1,22,27.33V26.14a0,0,0,0,1,0,0Z" class="cls-2" transform="translate(57.81 60.12) rotate(-169.12)"/><rect width="1.97" height="26.42" x="30.79" y="15.52" class="cls-2" rx=".9" transform="translate(-2.44 54.51) rotate(-79.12)"/><path d="M9.28,22.06s3.45.88,4.45-2.36c-1,3.24,2.35,4.45,2.35,4.45s-3.45-.88-4.44,2.35C12.63,23.27,9.28,22.06,9.28,22.06Z" class="cls-2"/><path d="M11.81,29a2.4,2.4,0,0,0,2.93-1.55,2.39,2.39,0,0,0,1.55,2.93,2.4,2.4,0,0,0-2.93,1.55A2.39,2.39,0,0,0,11.81,29Z" class="cls-2"/></g></g></svg>