<svg xmlns="http://www.w3.org/2000/svg" xmlns:xlink="http://www.w3.org/1999/xlink" viewBox="0 0 323.24 75.21"><defs><style>.cls-1{fill:#181f4f}.cls-2{fill:url(#linear-gradient)}.cls-3{fill:url(#linear-gradient-2)}.cls-4{fill:url(#linear-gradient-3)}.cls-5{fill:url(#linear-gradient-4)}.cls-6{fill:url(#linear-gradient-5)}.cls-7{fill:url(#linear-gradient-6)}</style><linearGradient id="linear-gradient" x1="6.79" x2="59.12" y1="51.95" y2="51.95" gradientUnits="userSpaceOnUse"><stop offset="0" stop-color="#014f84"/><stop offset="1" stop-color="#12bbe9"/></linearGradient><linearGradient id="linear-gradient-2" x2="12.32" y1="25.96" y2="25.96" gradientUnits="userSpaceOnUse"><stop offset="0" stop-color="#57813a"/><stop offset="1" stop-color="#d9e026"/></linearGradient><linearGradient id="linear-gradient-3" x1="4.57" x2="12.7" y1="37.92" y2="37.92" xlink:href="#linear-gradient-2"/><linearGradient id="linear-gradient-4" x1="227.46" x2="326.13" y1="45.38" y2="45.82" xlink:href="#linear-gradient-2"/><linearGradient id="linear-gradient-5" x1="227.45" x2="326.11" y1="48.84" y2="49.27" xlink:href="#linear-gradient-2"/><linearGradient id="linear-gradient-6" x1="227.42" x2="326.08" y1="54.92" y2="55.36" xlink:href="#linear-gradient-2"/></defs><g id="Camada_2" data-name="Camada 2"><g id="Camada_1-2" data-name="Camada 1"><path d="M42,33.05,48.24,4A3.26,3.26,0,0,0,46,0h0A3.24,3.24,0,0,0,42.5,2.91L38.27,32.35c-.36,1.88.17,3.57,1.19,3.77h0C40.48,36.31,41.6,34.94,42,33.05Z" class="cls-1"/><path d="M19,53.28c0,3-2.41,6.27-3.72,7.83l10.2,2C29,58.51,32.5,49.58,32.5,49.58A31.33,31.33,0,0,1,29,62.41c1.22.24,3.34-3.74,3.34-3.74a11.45,11.45,0,0,1-2,5.34l9.8,1.89c4.79-3.88,8.6-12.24,8.6-12.24-1.11,5.51-3.12,10.41-5.39,12.85l6.56,1.27c8.23-6.84,9.22-24.36,9.22-24.36l-40.26-7.3C16,49.72,6.79,59.49,6.79,59.49L13,60.69C16.35,58.42,19,53.28,19,53.28Z" class="cls-2"/><path d="M23.06,31.47H58.45a0,0,0,0,1,0,0v2.15a2.07,2.07,0,0,1-2.07,2.07H25.14a2.07,2.07,0,0,1-2.07-2.07V31.47a0,0,0,0,1,0,0Z" class="cls-1" transform="translate(74.45 74.25) rotate(-169.12)"/><rect width="3.57" height="47.88" x="38.97" y="12.22" class="cls-1" rx="1.63" transform="translate(-2.45 69.36) rotate(-79.12)"/><path d="M0,24.07s6.25,1.59,8.06-4.27c-1.81,5.86,4.26,8.06,4.26,8.06s-6.25-1.6-8,4.26C6.07,26.26,0,24.07,0,24.07Z" class="cls-3"/><path d="M4.57,36.67s4.13,1,5.32-2.82c-1.19,3.87,2.81,5.32,2.81,5.32S8.58,38.12,7.39,42C8.58,38.12,4.57,36.67,4.57,36.67Z" class="cls-4"/><path d="M85.48,56.14H96.42l-1.1,6.29H76.16l6-33.95h8.22Z" class="cls-1"/><path d="M112.66,35.64,107.9,62.43H99.69l4.71-26.79Zm-6.1-10.4a5.85,5.85,0,0,1,4.08-1.46,4.47,4.47,0,0,1,3,1,3.26,3.26,0,0,1,1.13,2.57,4.67,4.67,0,0,1-1.61,3.58,5.85,5.85,0,0,1-4.06,1.46,4.59,4.59,0,0,1-3.1-1,3.21,3.21,0,0,1-1.13-2.52A4.69,4.69,0,0,1,106.56,25.24Z" class="cls-1"/><path d="M159.57,37.61A8.5,8.5,0,0,1,161.88,44a15.35,15.35,0,0,1-.24,2.88L158.9,62.43h-8.21l2.59-14.6a6.62,6.62,0,0,0,.1-1.29,4,4,0,0,0-1.13-3,4.44,4.44,0,0,0-3.15-1A5.9,5.9,0,0,0,145,43.92,7,7,0,0,0,142.91,48l0,.14v0l-2.55,14.21h-8.16l2.55-14.6a7.27,7.27,0,0,0,.14-1.34,3.9,3.9,0,0,0-1.13-3,4.43,4.43,0,0,0-3.14-1A6,6,0,0,0,126.46,44a7.08,7.08,0,0,0-2.18,4.25l-2.5,14.21h-8.26l4.71-26.79h8.25l-.81,4.56a10.54,10.54,0,0,1,3.89-3.55,10.87,10.87,0,0,1,5.28-1.3A9.07,9.07,0,0,1,140,36.77a7.08,7.08,0,0,1,2.88,4,13.32,13.32,0,0,1,4.46-4A11.58,11.58,0,0,1,153,35.35,8.92,8.92,0,0,1,159.57,37.61Z" class="cls-1"/><path d="M192.73,38q2.57,2.73,2.57,7.59A22.09,22.09,0,0,1,195,49a19.63,19.63,0,0,1-2.81,7.3,14.32,14.32,0,0,1-5,4.78A12.34,12.34,0,0,1,181,62.77,8.5,8.5,0,0,1,176,61.38a6.31,6.31,0,0,1-2.52-3.8l-3.12,17.63h-8.26l7-39.57h8.21l-.86,4.85a10.51,10.51,0,0,1,3.89-3.8,11.12,11.12,0,0,1,5.57-1.39A8.93,8.93,0,0,1,192.73,38Zm-8.57,15.8A8.3,8.3,0,0,0,186.65,49a9.22,9.22,0,0,0,.15-1.58,4.53,4.53,0,0,0-4.85-5,6.64,6.64,0,0,0-4.56,1.76,8,8,0,0,0-2.5,4.77,8.09,8.09,0,0,0-.14,1.54,5,5,0,0,0,1.32,3.68,4.76,4.76,0,0,0,3.53,1.32A6.6,6.6,0,0,0,184.16,53.84Z" class="cls-1"/><path d="M217,36.72a6.19,6.19,0,0,1,2.66,3.77l.87-4.85h8.21L224,62.43h-8.22l.92-4.85a10.52,10.52,0,0,1-3.92,3.8,11.17,11.17,0,0,1-5.59,1.39A8.9,8.9,0,0,1,200.24,60q-2.53-2.8-2.54-7.8a22.14,22.14,0,0,1,.33-3.85,18,18,0,0,1,2.72-6.93,13.81,13.81,0,0,1,4.85-4.52,12.47,12.47,0,0,1,6.07-1.56A9.21,9.21,0,0,1,217,36.72Zm-8.12,7.51a8.06,8.06,0,0,0-2.47,4.8,9.34,9.34,0,0,0-.14,1.59,4.53,4.53,0,0,0,4.85,5,6.61,6.61,0,0,0,4.56-1.78,8.16,8.16,0,0,0,2.5-4.76,9.35,9.35,0,0,0,.14-1.53A5,5,0,0,0,217,43.82a4.78,4.78,0,0,0-3.53-1.32A6.71,6.71,0,0,0,208.86,44.23Z" class="cls-1"/><path d="M240.17,55.81h15L254,62.43H229.89l1.1-6.24,18.44-21.13H234.88L236,28.48h23.82l-1.11,6.24Z" class="cls-5"/><path d="M279.66,36.72a6.21,6.21,0,0,1,2.67,3.77l.86-4.85h8.21l-4.75,26.79h-8.21l.91-4.85a10.49,10.49,0,0,1-3.91,3.8,11.32,11.32,0,0,1-5.6,1.39A8.86,8.86,0,0,1,262.93,60q-2.55-2.8-2.55-7.8a22.14,22.14,0,0,1,.34-3.85,17.87,17.87,0,0,1,2.71-6.93,13.9,13.9,0,0,1,4.85-4.52,12.51,12.51,0,0,1,6.08-1.56A9.2,9.2,0,0,1,279.66,36.72Zm-8.11,7.51a8,8,0,0,0-2.48,4.8,10.49,10.49,0,0,0-.14,1.59,4.53,4.53,0,0,0,4.85,5,6.61,6.61,0,0,0,4.56-1.78,8.05,8.05,0,0,0,2.5-4.76A8.37,8.37,0,0,0,281,47.5a5,5,0,0,0-1.32-3.68,4.76,4.76,0,0,0-3.53-1.32A6.67,6.67,0,0,0,271.55,44.23Z" class="cls-6"/><path d="M320.67,38q2.56,2.73,2.57,7.59A20.91,20.91,0,0,1,323,49a19.46,19.46,0,0,1-2.81,7.3,14.23,14.23,0,0,1-5,4.78A12.31,12.31,0,0,1,309,62.77a8.59,8.59,0,0,1-5.07-1.39,6.4,6.4,0,0,1-2.52-3.8l-3.12,17.63H290l7-39.57h8.21l-.86,4.85a10.58,10.58,0,0,1,3.89-3.8,11.15,11.15,0,0,1,5.57-1.39A8.91,8.91,0,0,1,320.67,38Zm-8.57,15.8A8.37,8.37,0,0,0,314.6,49a10.26,10.26,0,0,0,.14-1.58,4.53,4.53,0,0,0-4.85-5,6.64,6.64,0,0,0-4.56,1.76,8,8,0,0,0-2.5,4.77,9,9,0,0,0-.14,1.54A5,5,0,0,0,304,54.24a4.74,4.74,0,0,0,3.53,1.33A6.6,6.6,0,0,0,312.1,53.84Z" class="cls-7"/></g></g></svg>